PathFileType	4	(X/Y/Z)	C:/Users/opensim2020/Desktop/walking_exp_matlab/subject06_walking20_straight_02.trc																																																																																																																															
DataRate	CameraRate	NumFrames	NumMarkers	Units	OrigDataRate	OrigDataStartFrame	OrigNumFrames																																																																																																																											
100	100	4	43	mm	100	1281	105																																																																																																																											
Frame#	Time	LFHD			RFHD			LBHD			RBHD			C7			T10			CLAV			STRN			RBAK			LSHO			LUPA			LELB			LFRM			LWRA			LWRB			LFIN			RSHO			RUPA			RELB			RFRM			RWRA			RWRB			RFIN			LASI			RASI			LPSI			RPSI			LTHI			LKNE			LTIB			LANK			LHEE			LTOE			RTHI			RKNE			RTIB			RANK			RHEE			RTOE			*39			*40			*41			*42		
		X1	Y1	Z1	X2	Y2	Z2	X3	Y3	Z3	X4	Y4	Z4	X5	Y5	Z5	X6	Y6	Z6	X7	Y7	Z7	X8	Y8	Z8	X9	Y9	Z9	X10	Y10	Z10	X11	Y11	Z11	X12	Y12	Z12	X13	Y13	Z13	X14	Y14	Z14	X15	Y15	Z15	X16	Y16	Z16	X17	Y17	Z17	X18	Y18	Z18	X19	Y19	Z19	X20	Y20	Z20	X21	Y21	Z21	X22	Y22	Z22	X23	Y23	Z23	X24	Y24	Z24	X25	Y25	Z25	X26	Y26	Z26	X27	Y27	Z27	X28	Y28	Z28	X29	Y29	Z29	X30	Y30	Z30	X31	Y31	Z31	X32	Y32	Z32	X33	Y33	Z33	X34	Y34	Z34	X35	Y35	Z35	X36	Y36	Z36	X37	Y37	Z37	X38	Y38	Z38	X39	Y39	Z39	X40	Y40	Z40	X41	Y41	Z41	X42	Y42	Z42	X43	Y43	Z43
																																																																																																																																		
40	0.39	-574.9295	1673.10168	-1523.57788	-581.58105	1661.21289	-1392.22375	-708.76379	1618.33362	-1530.48828	-713.59589	1612.33289	-1402.13	-708.59161	1456.57715	-1474.04895	-733.42963	1128.81982	-1465.3197	-595.56622	1384.01855	-1466.17078	-549.87128	1209.52502	-1468.87146	-779.78168	1285.30322	-1399.33325	-644.23865	1414.46826	-1630.50195	-649.62408	1213.96289	-1705.21619	-657.90973	1101.42261	-1718.10437	-634.94043	954.24237	-1742.776	-581.25281	835.63495	-1697.80273	-637.26306	835.39166	-1743.50464	-601.11206	751.2785	-1740.83728	-654.83429	1414.58813	-1308.94958	-710.77344	1221.44177	-1222.05615	-711.86163	1098.64868	-1211.35156	-703.06799	978.30664	-1194.80042	-648.61188	837.16803	-1227.46936	-703.10004	840.11768	-1187.79382	-670.1214	762.07587	-1187.92786	-546.43597	973.43231	-1562.18872	-569.37335	971.95508	-1345.18262	-704.65112	1001.49487	-1548.42468	-716.03339	993.23383	-1381.72681	-598.66217	659.78607	-1633.67932	-597.59167	495.99094	-1610.19312	-644.35864	241.94965	-1610.1051	-662.0769	70.55003	-1568.41565	-705.84399	55.07757	-1526.72485	-519.66656	40.97339	-1553.14673	-562.17511	635.61975	-1307.32397	-519.2229	517.41833	-1332.90723	-671.9682	310.94122	-1346.02356	-789.29266	168.47826	-1392.06567	-833.37982	165.14243	-1440.57117	-682.18604	62.29943	-1379.6731	-678.79413	1710.89697	-1469.27979	NaN	NaN	NaN	NaN	NaN	NaN	NaN	NaN	NaN
41	0.4	-560.78265	1673.32251	-1523.15918	-567.55273	1661.08948	-1391.89624	-694.6192	1618.79663	-1530.39624	-699.59869	1612.42664	-1402.04773	-694.63062	1456.87122	-1474.46973	-719.7298	1129.10181	-1465.95825	-581.65448	1384.23657	-1466.4436	-536.11157	1209.64563	-1469.54517	-765.98895	1285.52588	-1400.34448	-630.052	1415.08057	-1630.72046	-632.4679	1214.8844	-1706.23865	-638.82813	1102.08435	-1719.68311	-610.9079	955.43951	-1744.2345	-552.67078	839.29834	-1699.39453	-608.92261	836.62164	-1744.54553	-569.23767	754.2981	-1742.26587	-641.23883	1414.51306	-1309.27014	-699.51086	1221.98401	-1222.94177	-702.073	1099.20239	-1212.03882	-695.86664	978.64026	-1195.30225	-644.01038	836.16187	-1227.29993	-698.86176	840.58014	-1187.97217	-667.86566	761.59961	-1187.92126	-534.24554	972.81989	-1563.8446	-555.76367	972.19098	-1346.77026	-692.15942	1001.42114	-1548.45227	-702.14099	993.81104	-1381.53735	-590.90265	658.99622	-1633.7146	-592.07477	495.10883	-1610.44092	-642.4325	241.85455	-1609.80713	-661.62323	70.74065	-1567.84473	-706.54156	56.85328	-1526.93933	-519.3551	40.7406	-1553.23975	-543.69092	637.46881	-1306.98401	-498.98013	520.49194	-1332.87964	-643.63904	307.38889	-1345.21814	-753.5495	158.87401	-1390.75562	-797.30139	152.7729	-1439.63	-640.80963	59.83198	-1376.64954	-664.54614	1711.14319	-1468.90747	NaN	NaN	NaN	NaN	NaN	NaN	NaN	NaN	NaN
42	0.41	-546.49915	1673.25549	-1522.62073	-553.4035	1660.755	-1391.54822	-680.03693	1618.80518	-1529.86841	-685.57507	1612.24146	-1401.8584	-680.62445	1456.80737	-1474.74121	-706.04779	1128.99585	-1466.41956	-567.71405	1384.10925	-1466.69336	-522.23431	1209.47327	-1470.24121	-752.17712	1285.34851	-1401.23682	-615.67609	1415.30676	-1630.91406	-614.71362	1215.63721	-1706.86157	-619.85236	1102.32922	-1721.40869	-586.78003	957.04608	-1746.58118	-524.10034	842.98474	-1700.91992	-580.53857	837.78711	-1745.49341	-537.18292	757.44806	-1743.45898	-627.56757	1414.06177	-1309.48254	-688.13635	1222.11768	-1223.66956	-692.29413	1099.4115	-1212.6532	-688.56982	978.73724	-1195.71619	-639.72083	835.06445	-1227.1897	-694.59052	840.76416	-1188.10815	-665.4826	760.94586	-1187.68896	-522.12469	971.93982	-1565.53833	-540.95776	972.47595	-1348.09204	-679.86267	1000.96686	-1548.3125	-688.12708	994.02167	-1381.22644	-582.6748	658.2442	-1633.84534	-586.35785	494.32162	-1610.67908	-639.78284	241.66411	-1609.38196	-661.10919	70.83699	-1567.25684	-705.75952	56.93289	-1526.25964	-518.91327	40.50555	-1553.22961	-525.41498	639.39746	-1306.03174	-479.25406	523.23877	-1332.68213	-615.09583	303.44888	-1344.08752	-717.30334	149.35609	-1389.58521	-760.32996	140.39709	-1438.35095	-598.81769	57.36142	-1373.84338	-650.26508	1711.06909	-1468.42969	NaN	NaN	NaN	NaN	NaN	NaN	NaN	NaN	NaN
43	0.42	-532.06628	1673.19604	-1522.52698	-539.35681	1660.15161	-1391.1178	-666.07922	1618.7804	-1529.96375	-671.41779	1611.81409	-1401.63367	-666.58276	1456.50354	-1475.00659	-692.40118	1128.50208	-1466.81067	-553.77832	1383.65063	-1466.81909	-508.48978	1208.95947	-1470.89819	-738.41022	1284.81543	-1402.13989	-601.5108	1414.98254	-1631.09998	-598.17065	1215.1532	-1708.2146	-600.82941	1102.31531	-1723.26892	-562.83276	957.90637	-1748.00916	-495.75266	846.65784	-1702.56592	-552.12067	838.96454	-1746.34631	-505.2417	760.6629	-1744.50183	-613.83118	1413.29675	-1309.60095	-676.70172	1221.91748	-1224.39661	-682.44165	1099.30615	-1213.19092	-681.17108	978.56848	-1196.03491	-635.30701	833.82098	-1226.67529	-690.24249	840.75153	-1188.22803	-662.66156	760.38324	-1187.47388	-509.94211	970.86292	-1567.28662	-527.15997	971.86926	-1349.6261	-667.69202	1000.31281	-1548.05591	-674.34381	994.07178	-1380.82141	-574.54865	657.49951	-1633.97046	-580.36926	493.48495	-1610.9093	-636.58771	241.46664	-1609.17676	-660.57831	70.97639	-1566.90747	-706.18707	58.14138	-1526.45276	-518.55804	40.2986	-1553.32983	-507.28012	641.03302	-1305.06738	-459.86533	525.69452	-1332.38892	-586.53058	299.42072	-1342.81262	-680.34625	139.89116	-1387.76611	-722.38434	128.25967	-1437.16748	-556.61578	55.12675	-1371.06177	-635.96759	1710.74097	-1467.98364	NaN	NaN	NaN	NaN	NaN	NaN	NaN	NaN	NaN
